<svg width="13" height="12" viewBox="0 0 13 12" fill="none" xmlns="http://www.w3.org/2000/svg">
<path d="M5.19531 0.786133C4.92188 1.05957 4.94922 1.46973 5.19531 1.74316L8.50391 4.86035H0.65625C0.273438 4.86035 0 5.16113 0 5.5166V6.3916C0 6.77441 0.273438 7.04785 0.65625 7.04785H8.50391L5.19531 10.1924C4.94922 10.4658 4.94922 10.876 5.19531 11.1494L5.79688 11.751C6.07031 11.9971 6.48047 11.9971 6.72656 11.751L12.0586 6.41895C12.3047 6.17285 12.3047 5.7627 12.0586 5.48926L6.72656 0.18457C6.48047 -0.0615234 6.07031 -0.0615234 5.79688 0.18457L5.19531 0.786133Z" fill="currentColor"/>
</svg>
