<svg width="60" height="80" viewBox="0 0 60 80" fill="none" xmlns="http://www.w3.org/2000/svg">
<path d="M57.6562 15.3125L44.6875 2.1875C43.2812 0.78125 41.25 0 39.375 0H7.5C3.28125 0 0 3.4375 0 7.5V72.5C0 76.7188 3.28125 80 7.5 80H52.5C56.5625 80 60 76.7188 60 72.5V20.625C60 18.75 59.0625 16.7188 57.6562 15.3125ZM54.2188 18.9062C54.5312 19.2188 54.6875 19.6875 54.8438 20H40V5.15625C40.3125 5.3125 40.7812 5.46875 41.0938 5.78125L54.2188 18.9062ZM52.5 75H7.5C6.09375 75 5 73.9062 5 72.5V7.5C5 6.25 6.09375 5 7.5 5H35V21.25C35 23.4375 36.5625 25 38.75 25H55V72.5C55 73.9062 53.75 75 52.5 75ZM45 36.875C45 35.9375 44.0625 35 43.125 35H16.875C15.7812 35 15 35.9375 15 36.875V38.125C15 39.2188 15.7812 40 16.875 40H43.125C44.0625 40 45 39.2188 45 38.125V36.875ZM45 46.875C45 45.9375 44.0625 45 43.125 45H16.875C15.7812 45 15 45.9375 15 46.875V48.125C15 49.2188 15.7812 50 16.875 50H43.125C44.0625 50 45 49.2188 45 48.125V46.875ZM45 56.875C45 55.9375 44.0625 55 43.125 55H16.875C15.7812 55 15 55.9375 15 56.875V58.125C15 59.2188 15.7812 60 16.875 60H43.125C44.0625 60 45 59.2188 45 58.125V56.875Z" fill="currentColor"/>
</svg>
