<svg width="20" height="27" viewBox="0 0 20 27" fill="none" xmlns="http://www.w3.org/2000/svg">
<path d="M11.6667 10.0833C11.6667 9.875 11.4583 9.66667 11.25 9.66667H8.75C8.48958 9.66667 8.33333 9.875 8.33333 10.0833V13H5.41667C5.15625 13 5 13.2083 5 13.4167V15.9167C5 16.1771 5.15625 16.3333 5.41667 16.3333H8.33333V22.25C8.33333 22.5104 8.48958 22.6667 8.75 22.6667H11.25C11.4583 22.6667 11.6667 22.5104 11.6667 22.25V16.3333H14.5833C14.7917 16.3333 15 16.1771 15 15.9167V13.4167C15 13.2083 14.7917 13 14.5833 13H11.6667V10.0833ZM19.2188 5.10417L14.8958 0.78125C14.4271 0.3125 13.75 0 13.125 0H2.5C1.09375 0.0520833 0 1.14583 0 2.55208V24.1667C0 25.5729 1.09375 26.6667 2.5 26.6667H17.5C18.8542 26.6667 20 25.5729 20 24.1667V6.875C20 6.25 19.6875 5.57292 19.2188 5.10417ZM13.3333 1.71875C13.4375 1.77083 13.5938 1.82292 13.6979 1.92708L18.0729 6.30208C18.1771 6.40625 18.2292 6.5625 18.2812 6.71875H13.3333V1.71875ZM18.3333 24.1667C18.3333 24.6354 17.9167 25 17.5 25H2.5C2.03125 25 1.66667 24.6354 1.66667 24.1667V2.55208C1.66667 2.08333 2.03125 1.66667 2.5 1.66667H11.6667V7.13542C11.6667 7.8125 12.1875 8.33333 12.9167 8.33333H18.3333V24.1667Z" fill="currentColor"/>
</svg>
