<svg width="24" height="19" viewBox="0 0 24 19" fill="none" xmlns="http://www.w3.org/2000/svg">
<path d="M15 12H19.6667C19.8333 12 20 11.875 20 11.6667V11C20 10.8333 19.8333 10.6667 19.6667 10.6667H15C14.7917 10.6667 14.6667 10.8333 14.6667 11V11.6667C14.6667 11.875 14.7917 12 15 12ZM15 9.33333H19.6667C19.8333 9.33333 20 9.20833 20 9V8.33333C20 8.16667 19.8333 8 19.6667 8H15C14.7917 8 14.6667 8.16667 14.6667 8.33333V9C14.6667 9.20833 14.7917 9.33333 15 9.33333ZM15 14.6667H19.6667C19.8333 14.6667 20 14.5417 20 14.3333V13.6667C20 13.5 19.8333 13.3333 19.6667 13.3333H15C14.7917 13.3333 14.6667 13.5 14.6667 13.6667V14.3333C14.6667 14.5417 14.7917 14.6667 15 14.6667ZM8 13.3333C9.83333 13.3333 11.3333 11.875 11.3333 10C11.3333 8.16667 9.83333 6.66667 8 6.66667C6.125 6.66667 4.66667 8.16667 4.66667 10C4.66667 11.875 6.125 13.3333 8 13.3333ZM8 8C9.08333 8 10 8.91667 10 10C10 11.125 9.08333 12 8 12C6.875 12 6 11.125 6 10C6 8.91667 6.875 8 8 8ZM21.3333 0H2.66667C1.16667 0 0 1.20833 0 2.66667V16C0 17.5 1.16667 18.6667 2.66667 18.6667H21.3333C22.7917 18.6667 24 17.5 24 16V2.66667C24 1.20833 22.7917 0 21.3333 0ZM11.3333 17.3333H4.66667V16.7083C4.66667 16.4167 4.75 16.1667 4.91667 15.9167C5.125 15.5417 5.54167 15.375 6.04167 15.375C6.54167 15.375 6.91667 15.6667 8 15.6667C9.08333 15.6667 9.41667 15.375 9.91667 15.375C10.4167 15.375 10.8333 15.5833 11.0833 15.9167C11.25 16.1667 11.3333 16.4167 11.3333 16.7083V17.3333ZM22.6667 16C22.6667 16.75 22.0417 17.3333 21.3333 17.3333H12.6667V16.7083C12.6667 16.125 12.4583 15.625 12.1667 15.1667C11.6667 14.4167 10.7917 14 9.91667 14C9.125 14 8.91667 14.2917 8 14.2917C7.04167 14.2917 6.83333 14 6.04167 14C5.16667 14 4.29167 14.4167 3.79167 15.1667C3.5 15.625 3.33333 16.125 3.33333 16.7083V17.3333H2.66667C1.91667 17.3333 1.33333 16.75 1.33333 16V5.33333H22.6667V16ZM22.6667 4H1.33333V2.66667C1.33333 1.95833 1.91667 1.33333 2.66667 1.33333H21.3333C22.0417 1.33333 22.6667 1.95833 22.6667 2.66667V4Z" fill="currentColor"/>
</svg>
