<svg width="100" height="61" viewBox="0 0 100 61" fill="none" xmlns="http://www.w3.org/2000/svg">
<path fill-rule="evenodd" clip-rule="evenodd" d="M44.2103 17.2474C43.8403 19.5333 45.2586 21.2631 47.3552 21.2013C48.4638 21.2013 49.4504 20.7071 50.437 20.3364C50.807 21.5102 51.3003 22.2516 52.2239 22.8076C53.0872 23.3636 53.9505 23.6107 55.0605 23.6725C58.0807 23.8578 60.3609 22.2516 62.2108 21.1395C62.3958 21.016 62.5191 20.8924 62.5808 20.7071C62.6424 20.5217 63.2591 20.2128 63.3824 20.0893C63.5057 20.0275 63.5057 19.8422 63.5674 19.7186C63.6291 19.595 64.369 19.039 64.9843 18.7919C65.1076 18.7301 65.231 17.9888 64.861 17.8034C64.491 17.6181 63.936 18.1123 63.5057 18.3595C63.0124 18.6684 62.5191 18.8537 62.1491 19.039C61.2858 19.4715 60.4225 20.0275 59.3743 20.3364C56.7871 21.0778 54.5055 20.0893 53.8272 18.1741C54.5672 17.4945 55.2455 16.815 55.9238 16.1354C57.5257 14.5909 60.3609 10.4517 59.8072 9.64853C59.4373 9.21607 58.6973 9.52497 58.389 9.64853C58.2656 9.71031 58.019 9.64853 57.8957 9.71031C57.2174 9.95743 56.4774 10.5752 55.8004 10.9459C55.0605 11.3784 54.3822 11.749 53.7655 12.3051C52.1006 13.7878 50.8687 15.9501 50.3137 18.1123C48.7104 18.483 47.6622 16.8767 47.9088 15.2705C50.067 13.5406 51.854 11.5019 53.7655 9.40141C54.9372 8.10404 55.8004 6.68311 56.6624 5.26218C56.8474 4.95328 56.8474 4.76794 56.9707 4.39726C57.094 4.02659 57.4024 3.59413 57.5257 3.03811C57.834 2.1732 58.204 0.690486 57.5874 0.07269C57.2174 -0.236208 55.2455 0.505147 54.3822 1.06116C53.5189 1.61718 52.7173 1.98786 51.9773 2.42032C51.547 2.72921 51.1153 3.28523 50.6837 3.71769C50.252 4.15014 49.9437 4.76794 49.5737 5.26218C48.0938 7.42446 47.0469 9.52497 45.8739 11.9344C45.4569 12.8624 45.0869 13.8109 44.7653 14.7762C44.642 15.1469 44.642 15.2087 44.457 15.394C44.2103 15.7647 43.1017 16.4443 42.6701 16.6296C42.5467 16.6914 40.9435 17.2474 41.3135 18.2359C41.6834 18.6066 43.2867 17.5563 44.2103 17.2474ZM56.6637 11.749C56.724 11.749 56.7857 11.749 56.7857 11.8108C56.9707 12.2433 56.6007 12.7993 56.3541 13.17C55.6771 14.1584 54.8125 15.5176 53.9505 15.9501C54.2589 14.1584 55.4305 12.7993 56.6624 11.749H56.6637ZM53.9505 2.85277C54.0122 2.72921 54.1355 2.66743 54.4438 2.72921C54.6905 2.79099 53.9505 4.8915 53.5189 5.81819C52.4089 8.04226 50.622 9.83387 49.1421 11.5637C50.3137 8.66006 52.039 5.32396 53.9505 2.85277ZM98.5187 33.0012C97.6568 32.8777 96.3002 32.4452 95.4985 32.3834C95.1286 32.3216 93.095 32.0128 91.9234 32.2599C91.6151 32.3217 91.3067 32.3217 90.9984 32.2599C92.6017 31.8274 94.3899 31.6421 96.2385 32.1363C96.1768 32.1363 96.9168 32.1981 97.5951 32.2599H97.6568C98.4571 32.4452 98.9504 32.3217 99.6903 32.1981C99.1354 31.7656 97.9034 32.0128 97.6568 31.2714C97.9651 30.9625 98.7037 31.2714 99.1354 31.2714C98.9504 31.0243 98.5804 31.0243 98.3954 30.8389C98.5804 30.7772 98.7654 30.9625 98.8887 30.8389C98.6421 30.7154 98.827 30.6536 99.012 30.5918C98.5187 30.4683 97.7788 30.4683 97.8418 29.9122C98.3337 29.974 99.2587 30.0976 99.3204 30.0976C99.382 30.0358 99.012 29.9122 99.012 29.7887C98.3337 29.6651 97.4101 29.2944 96.7318 28.9856C96.7935 28.8002 96.6085 28.6767 96.3618 28.6149C97.4101 28.7384 98.3338 28.9855 99.3204 29.0473C99.1354 28.9855 99.382 28.9238 99.382 28.9238C99.3204 28.9238 99.197 28.862 99.1354 28.862H99.2587C99.2587 28.862 99.1354 28.862 99.012 28.8002C98.9504 28.8002 98.8887 28.7384 98.827 28.7384C98.3954 28.6149 97.6568 28.3678 97.2251 28.0589C98.0268 28.1206 98.7667 28.1824 99.5053 28.2442C97.9034 27.5646 94.6352 27.6264 92.91 28.306C91.8 28.8002 89.8268 29.3562 88.5935 30.0358C88.8415 29.3562 89.2732 28.4295 89.1499 27.6882C89.0265 27.8735 89.0265 28.2442 88.8415 28.306C88.7799 28.2442 88.9649 27.9353 88.7182 28.1206C88.8415 27.5646 89.2732 27.0086 89.2115 26.5144C88.9649 26.3908 88.9649 26.1437 88.5949 26.0819C88.5332 26.0819 88.5332 26.1437 88.4099 26.2055C88.4715 26.0819 88.6565 26.0201 88.5332 25.8966C88.1016 25.8348 87.8549 25.6495 87.3616 25.773C87.4233 26.0201 87.5466 26.2055 87.3616 26.3908C86.6216 26.3908 86.4983 25.7112 86.19 25.4023C85.82 25.3406 85.82 25.6495 85.5733 25.7112C85.513 25.773 85.5733 26.2672 85.4514 26.5761C85.2047 27.2557 84.958 28.1206 84.5881 28.8002C84.3414 29.2327 84.0331 29.9122 83.7864 30.2829C83.2315 31.1478 83.0465 32.1363 82.4915 32.8777C82.5532 33.1866 82.2448 33.2483 82.1215 33.4955C82.0599 33.619 82.0599 33.8661 81.9365 34.0515C81.6899 34.5457 81.2596 35.04 80.9512 35.596C79.9721 37.0631 78.9854 38.5253 77.9914 39.9823C77.3747 40.909 76.7581 41.7739 76.1415 42.6388C75.8962 43.0095 75.5878 43.2566 75.4645 43.6273C75.4028 43.8127 75.5262 44.0598 75.4645 44.1833C75.4028 44.4922 75.0945 44.7393 75.1562 45.11C75.2795 45.1718 75.5262 45.1718 75.6495 45.2954C75.4645 45.8514 74.9712 46.0985 75.0945 46.7163C75.4028 46.8399 75.6495 46.5927 75.8345 46.7781C76.0811 46.531 76.3278 46.1603 76.5745 45.8514C76.8211 45.6043 77.1281 45.11 77.4994 45.2954C77.3131 45.8514 76.6978 46.0985 76.9444 46.7163C77.2528 46.9016 77.4364 46.5927 77.6831 46.7781C78.4847 45.9132 79.1013 44.9247 80.0263 44.2451C80.9592 43.074 81.8038 41.835 82.5532 40.5383C83.1081 39.9205 83.6014 39.3027 84.0948 38.685C84.5881 38.0672 84.958 37.3258 85.4514 36.6462C85.6967 36.3373 86.19 36.152 86.56 35.9049C87.6699 35.04 88.5332 34.2986 89.8885 33.7426C91.3067 33.1866 92.7867 32.7541 94.2653 32.7541C95.1286 32.8777 96.1152 32.8159 96.7935 33.1866C96.7935 33.1866 96.8551 33.2483 96.9168 33.2483C98.1501 33.3719 98.9504 33.5572 100 33.3101C99.8137 33.063 99.3204 33.1248 98.9504 33.063C98.5187 33.063 98.6421 33.0012 98.5187 33.0012ZM78.608 41.3415C78.4847 40.2912 79.2247 39.6116 79.6563 38.9321C79.718 38.9321 80.5196 37.82 80.9512 37.6347C80.1496 38.8085 79.2863 40.0441 78.608 41.3415ZM83.7248 33.6808C83.2315 34.5457 82.6765 35.3489 81.9365 36.0902C81.8749 35.5342 82.6148 34.9164 82.8615 34.2986C83.9098 33.4337 84.3414 31.951 85.0814 30.7772C85.143 30.7154 85.0197 30.3447 85.0197 30.2829C85.328 29.8505 85.5733 29.2327 85.8817 28.8002C85.9433 28.8002 85.9433 28.8002 86.005 28.862C86.005 29.1709 85.9433 29.5416 85.8817 29.6033C85.82 29.6651 85.8817 30.4683 85.6967 30.8389C85.2664 31.8892 84.3414 32.9394 83.7248 33.6808ZM76.7594 30.9625C77.4364 29.2944 78.4847 28.0589 79.2246 26.5144C79.4096 26.5144 79.4713 26.3908 79.5946 26.329C79.1013 25.6495 78.608 25.8966 77.8064 26.0819C77.5597 26.4526 77.2514 26.7615 77.0061 27.1322L77.5597 26.0201C77.1898 25.9583 77.1897 26.2672 76.9431 26.2055C76.6978 26.6379 76.2661 26.9468 76.0811 27.5028C75.2795 27.9971 74.8478 29.5416 74.1079 30.1594C74.4779 29.5416 74.9095 28.862 75.2795 28.1824C75.7728 27.3793 76.4511 26.5144 76.5745 25.5877C76.3278 25.5259 76.2661 25.217 76.0195 25.0934C75.0329 25.1552 74.9095 26.0819 74.2929 26.5761C73.6146 27.0704 73.3063 27.9353 72.7513 28.4295C72.691 28.5531 72.691 28.4913 72.7513 28.6767C72.0743 29.6033 71.581 30.6536 70.6561 31.3332C70.3477 32.1363 69.6078 32.507 69.1761 33.1866C68.4992 33.6808 68.1908 34.4839 67.6975 35.1635C67.4509 35.5342 67.3275 35.7813 67.1426 36.152C66.9576 36.4609 66.5876 36.6462 66.5876 37.0787C65.8476 37.82 65.1693 38.685 64.369 39.4881C63.9374 39.8588 63.5674 40.2912 63.1357 40.6001C62.3958 41.0944 61.5942 41.7739 60.8542 42.2064C59.6209 42.8242 57.9573 42.6388 57.5874 41.3415C57.464 40.8472 57.5873 40.2912 57.649 39.797C57.8957 37.6347 59.1906 35.9666 60.4239 34.7928C60.9775 33.9279 61.7175 33.2483 62.3341 32.3834C63.0124 31.395 63.6907 30.2211 64.369 29.3562C64.3074 29.3562 64.3074 29.2944 64.3074 29.2327C64.861 28.5531 65.3543 27.8735 65.849 27.1322C65.7243 26.885 65.9093 26.6997 65.9709 26.5144C65.5393 26.4526 65.416 26.9468 65.1693 27.2557C64.827 27.6559 64.4335 28.009 63.999 28.306C64.2457 27.9353 64.5527 27.6264 64.7377 27.3175C64.6143 27.3175 64.676 27.0704 64.5527 27.0704C63.8141 27.6264 63.0741 28.4913 62.4575 29.0473C63.0741 28.1206 63.7524 27.2557 64.676 26.5761C64.5527 26.5144 64.6143 26.5144 64.6143 26.3908C64.676 26.2672 64.7993 26.2672 64.7993 26.0819C64.4293 26.0819 64.369 26.4526 64.0607 26.5761C64.1224 26.3908 63.9991 26.3908 63.9374 26.2672C63.5674 26.2055 63.3824 26.6379 63.0741 26.3908C63.0124 26.4526 62.9508 26.5761 62.8274 26.6379C62.7658 26.5761 62.7658 26.4526 62.6424 26.5144C62.4575 26.7615 61.4092 26.9468 61.2858 27.0704C60.9775 27.2557 60.9775 27.6882 60.9159 27.8117C60.9159 27.8117 60.8542 27.9971 60.8542 28.1824C60.6692 28.2442 60.7309 28.3678 60.5459 28.306C59.9922 29.1709 58.8823 29.7887 58.5123 30.7772C58.5123 30.8389 58.5123 30.8389 58.389 30.9625C58.3273 31.0243 57.5257 32.3834 57.279 32.9394C57.279 33.0012 57.094 33.3101 56.9707 33.4955C56.9707 33.4337 56.9707 33.3719 56.9091 33.3719C56.5391 33.9897 56.1074 34.6075 55.7388 35.1635L55.5538 35.3489C55.5538 35.4106 54.6288 36.5844 54.3205 37.2022C54.2589 37.3258 53.7655 38.1289 53.3956 38.7467C53.3956 38.8085 53.2722 39.1174 52.9639 39.6116C52.7789 39.797 52.1006 40.5383 51.9156 40.9708C51.854 41.0326 51.4853 41.5886 51.4236 41.7739C51.4236 41.8357 50.8687 42.8242 50.7453 42.9477C50.3754 43.1949 50.1904 43.5038 49.9437 43.7509C49.882 44.6776 48.5871 45.1718 49.4504 46.0367C50.437 45.2954 51.177 44.2451 52.1623 43.5038L52.4706 43.1949C52.9639 44.0598 53.5189 44.8629 54.3205 45.4189C54.8755 45.2954 55.1838 45.8514 55.5538 46.1603C55.7388 46.2838 56.0458 46.3456 56.2924 46.4692C56.9707 46.8399 57.464 47.2105 58.2657 47.3959C59.3139 47.5812 60.0539 47.643 60.9159 47.2723C63.0741 46.4692 65.3543 45.0483 66.7109 43.7509C66.9576 44.2451 67.3892 44.6158 67.8825 44.8629L68.2525 45.0483C68.8691 45.4189 69.9161 45.7278 70.9027 45.6043C70.9027 45.4189 71.026 45.2336 71.0877 45.2336C71.211 45.1718 70.4711 44.7394 70.6561 44.8011C70.6561 44.8011 70.9027 44.9247 70.9644 44.8629C70.9644 44.8011 70.7177 44.554 70.7794 44.554C71.0261 44.6158 71.4577 44.9247 71.5193 44.9247C71.766 44.9865 71.951 44.9865 72.0743 44.9247C72.691 45.11 73.1213 44.6776 73.5529 44.3687C73.0596 44.1833 72.7526 44.2451 72.1977 43.998C71.951 43.8744 71.211 43.5038 71.211 43.3802C70.1011 43.0713 69.3611 42.0828 69.6078 40.5383C70.841 38.9321 72.2593 37.5111 73.4296 35.9049C74.0462 35.4106 74.4162 34.6693 74.7862 33.9279C75.7728 33.2483 75.8961 31.7656 76.7594 30.9625ZM53.9505 41.5268C53.7039 40.8472 54.3205 39.8588 54.8755 39.4263C54.5672 39.9823 54.3822 41.0326 54.6905 41.6504C54.9371 42.2064 55.5538 42.8242 56.0457 43.1331C55.3071 42.9477 54.1958 42.2682 53.9505 41.5268ZM57.9573 34.7311C58.0807 34.4839 58.204 34.2986 58.3273 34.0515C58.574 33.619 58.6973 33.063 58.9439 32.6305C59.3139 32.0127 59.7456 31.2096 60.1772 30.8389C60.5459 30.53 61.0392 30.4683 61.3475 30.0976C61.4092 30.0976 61.4092 30.0976 61.4708 30.1594C61.2858 30.5918 60.9159 30.8389 60.7309 31.3332C60.5459 31.3332 60.5459 31.5803 60.2375 31.5185C59.0673 32.8777 58.3876 34.4839 57.4024 35.9666C57.3407 35.4724 57.7723 35.1635 57.9573 34.7311ZM66.6492 39.9205C68.6103 38.1309 70.405 36.1665 72.0113 34.0515C72.136 33.9897 72.136 34.1133 72.1977 34.2368C71.026 35.596 70.2244 37.264 68.7445 38.3143C68.1278 38.9321 67.8195 39.797 66.6492 39.9205ZM69.1761 38.685C69.0528 38.7467 68.8061 38.4996 68.8678 38.4378C70.4094 37.0169 71.766 35.4106 72.998 33.6808C73.1213 33.619 73.1213 33.7426 73.1213 33.8044C72.2593 34.9164 69.7928 38.4996 69.1761 38.685ZM52.2239 33.5572C52.2856 32.4452 52.1006 31.7039 51.8539 30.7772C51.2373 28.306 49.7587 26.885 47.6621 25.8348C47.2653 25.548 46.8297 25.3192 46.3686 25.1552C45.8994 24.9382 45.4006 24.7924 44.8886 24.7228C44.3953 24.661 43.9637 24.9699 43.4087 24.9081C42.792 24.8463 42.3001 24.2903 41.4368 24.5992C39.0936 25.4023 37.245 26.7615 35.6417 28.306C35.5801 28.3678 35.6417 28.5531 35.5184 28.6149C35.0868 29.1091 34.3481 29.418 33.9165 29.974C33.7932 30.1594 33.7931 30.3447 33.6698 30.53C33.5465 30.7154 33.2998 30.8389 33.1765 31.0861C32.8682 31.5803 32.6215 32.1363 32.2516 32.6305C31.5732 33.4337 31.0799 34.3604 30.588 35.2871C30.2797 35.8431 30.033 36.4609 29.848 37.0787C29.5397 37.3876 29.108 37.8818 28.923 38.376C28.7381 38.8703 28.7997 40.0441 28.7997 40.4148C28.7997 40.6619 28.6764 40.909 28.6764 41.0944C28.6764 41.2179 28.7381 41.4033 28.7997 41.5886C28.7997 41.9593 28.6764 42.2682 28.7381 42.5153C28.923 43.3802 29.3547 44.0598 29.6014 44.7394C29.7864 44.7394 29.6014 44.3069 29.7864 44.3069C30.033 44.9865 30.403 45.5425 30.9566 45.9132C31.3266 46.1603 31.8199 46.2838 32.1899 46.531C32.3749 46.6545 32.4366 46.8399 32.5599 46.9634C32.7449 47.087 32.9915 47.087 33.2382 47.2723C33.4848 47.4577 33.6082 47.7048 33.8548 47.8283C34.1015 47.9519 35.2101 48.2608 36.3214 48.1372C37.3067 48.0755 38.2316 47.5194 39.1552 47.5812C39.0332 47.5812 38.7249 48.0755 38.8469 48.0755C40.5735 47.4577 42.3001 46.8399 43.78 45.9749C43.4717 46.2838 42.8551 46.4074 42.6701 46.8399C44.7653 45.9749 46.6152 43.998 48.2171 41.9593C48.9711 40.9965 49.691 40.0074 50.3754 38.9938C51.2387 37.5729 52.0389 35.7195 52.2253 33.5572H52.2239ZM32.5599 34.175C32.6215 34.4222 31.6966 35.8431 31.6349 36.0902C31.5116 35.7813 32.1899 34.2368 32.5599 34.175ZM36.3817 46.7781C36.7517 46.2838 37.5533 46.7163 38.1083 46.6545C37.7383 47.087 36.9367 47.0252 36.3817 46.7781ZM37.615 46.2221C38.8483 45.7896 39.8952 45.2336 41.1285 44.8011C40.8818 45.2954 40.2652 45.4807 39.5252 45.8514C38.8483 46.1603 38.4166 46.5927 37.615 46.2221ZM39.7102 46.2838C40.8818 45.6043 41.8684 44.8011 43.1634 44.2451C43.1634 44.1833 43.225 44.1833 43.2867 44.1833C42.4234 45.2336 40.9435 45.666 39.7102 46.2838ZM44.272 39.9823C43.1634 41.9593 41.2518 43.1331 38.9099 43.8744C36.7517 44.4305 34.3481 43.5655 33.0518 42.5153L32.9915 42.4535C32.4365 41.7122 31.5732 41.5268 31.6966 40.1059C31.7582 39.3027 32.1899 38.4996 32.4982 37.6965C32.6832 37.3258 32.7449 36.9551 32.9299 36.6462C33.2382 36.0284 33.6082 35.2871 34.1015 34.7928C34.9634 32.6923 36.0734 30.7772 37.6136 29.2944C37.7383 29.2327 37.7383 29.1709 37.922 29.0473C38.2303 28.8002 38.4166 28.6149 38.7866 28.3678C39.7115 27.6882 40.8818 27.3175 42.0534 27.0086C42.7934 26.9468 43.717 27.1939 44.52 27.2557C45.3203 27.2557 45.9986 27.75 46.3069 27.9971C46.8619 28.8002 47.6622 29.418 47.7855 30.6536C47.7855 30.9007 47.9705 31.1478 48.0321 31.395C48.0938 31.8274 47.9705 32.3834 47.9088 32.7541C47.9088 32.8777 47.8472 33.1866 47.7855 33.3719C47.5388 33.9897 47.1085 35.04 46.8605 35.4724C46.6769 35.7195 46.4302 36.2138 46.3069 36.5227C46.2041 36.8595 46.0805 37.1896 45.9369 37.5111C45.8136 37.7583 45.5053 38.1289 45.4436 38.1907C45.1353 38.4996 44.8886 39.0556 44.7653 39.241C44.7653 39.3027 44.642 39.5499 44.5803 39.6116C44.457 39.6734 44.3953 39.8588 44.272 39.9823ZM46.9852 39.4881C46.1836 40.7237 45.3819 41.9593 44.5803 43.1331C44.8886 41.8975 45.6286 40.2294 46.9852 39.4881ZM49.2654 36.9551C48.5254 38.4996 46.9852 40.909 45.7519 42.3299C46.8619 40.5383 48.1555 38.1289 48.2185 37.5729C48.3405 37.3258 48.6488 36.7698 48.7104 36.5844C48.8338 36.0284 49.2038 35.7195 49.3887 35.2253C49.3887 35.7813 49.4504 36.4609 49.2654 36.9551ZM32.8065 25.0934C32.8065 24.8463 32.8682 24.7228 32.9299 24.5374C32.8682 24.4139 32.6215 24.3521 32.6832 24.105C32.3132 24.1667 32.0049 24.5374 31.7582 24.661C31.6966 24.7228 31.6349 24.7228 31.6349 24.7845C31.5733 24.8463 31.4499 24.8463 31.3883 24.9081C30.9566 25.4023 30.71 26.0201 30.3413 26.6379C29.7247 27.5646 29.2314 28.4295 28.7381 29.418C28.4914 29.8505 28.3681 30.4065 27.9364 30.7154C27.8748 30.2829 28.1214 30.0976 28.2447 29.7887C28.6764 28.862 29.108 27.8117 29.663 26.885C30.3413 25.7112 31.2046 24.5374 31.7582 23.5489C31.8199 23.3636 31.6349 23.24 31.6349 22.9929C32.0049 22.4369 31.3883 21.9427 31.2033 21.572C31.0183 21.6338 30.895 21.9427 30.71 21.8809C30.895 21.8191 31.0183 21.572 30.895 21.3249C30.8333 21.5102 30.71 21.3249 30.7716 21.3249C30.5263 21.2631 30.403 21.6956 30.155 21.8809C30.033 21.9427 29.9713 21.8191 29.8467 21.8191C29.1697 22.3134 28.8614 22.9929 28.3681 23.7343C28.0598 24.2285 27.7514 24.661 27.4431 25.0934C27.1348 25.5259 26.9498 26.1437 26.7032 26.6379C26.3948 27.1322 26.0865 27.6264 25.9029 28.1206C25.5329 29.1709 25.4712 30.2829 24.9162 31.2714C24.9162 31.3332 24.7313 31.951 24.4846 32.1981C24.6696 31.4567 25.0396 30.4065 25.3479 29.3562C25.0396 29.5416 25.0396 29.8505 24.9162 30.0976C24.4846 31.2096 23.9296 32.3217 23.498 33.4337C23.128 34.3604 22.6347 35.4724 22.1427 36.2755C21.6494 37.6347 20.7244 38.4996 20.3545 39.9205C20.4778 39.9823 20.6628 39.4881 20.9094 39.3027C20.9711 39.4263 20.8478 39.7352 20.7861 39.8588C20.6011 40.1677 20.2311 40.8472 19.9845 41.4033C19.8611 41.6504 19.6761 41.8357 19.6145 42.0828C19.4295 42.5153 19.4295 42.9477 19.3062 43.3184C19.1828 43.6891 18.9362 43.998 18.6895 44.3069C18.1962 44.9865 17.9509 45.7278 17.4563 46.3456C17.1479 46.7163 16.9643 47.1488 16.9026 47.2723C16.7793 47.643 16.471 48.0755 16.4093 48.199C16.3477 48.2608 15.731 49.4346 15.0527 49.6817C14.991 49.7435 14.9294 49.8053 14.8061 49.8671C14.0044 51.1026 13.5124 52.2147 12.2792 52.8943C12.0325 53.0178 11.9709 53.1414 11.8475 53.2032C11.2926 53.9445 10.6759 54.4388 9.62763 54.6859C10.1826 54.4388 10.8609 53.821 11.1076 53.5121C10.9842 53.5121 10.6143 53.6974 10.3676 53.821C9.75096 54.1916 9.93596 54.1299 9.50566 54.3152C8.70394 55.0729 7.73051 55.6241 6.66911 55.9215C6.60745 55.9215 6.54578 55.9215 6.48412 55.9832C6.11414 56.1068 6.05247 55.9215 5.74415 55.7979C5.62082 55.7361 5.49749 55.5508 5.43583 55.4272C4.94386 54.5005 4.51088 53.821 4.8822 52.5236C5.19052 51.3498 6.36079 49.9288 7.22408 49.4346C7.40907 48.9404 7.90239 48.3226 7.5324 47.643C7.5324 47.5812 7.47074 47.4577 7.47074 47.3959C7.40908 46.4692 7.28575 46.0367 6.91577 45.4189C7.03909 45.2336 7.22408 45.1718 7.22408 44.8629C7.10075 44.7394 7.03909 44.4922 6.97743 44.3069C6.97743 44.1833 6.91577 44.0598 6.66911 43.998C6.54578 43.9362 6.60744 43.6891 6.54578 43.6891C6.05247 43.6273 6.23746 44.1216 5.92914 44.2451C5.80582 44.1833 5.86748 44.1216 5.80581 44.1216C5.49749 44.3069 5.00553 44.3069 4.88086 44.4305C4.14224 45.5425 3.58726 46.8399 2.53897 47.7048C2.53897 47.9519 2.47731 47.9519 2.35398 48.1372C2.23065 48.199 2.23066 48.3226 2.10733 48.3226C1.57933 49.1136 1.14519 49.9637 0.813725 50.8555C0.690397 51.2262 0.75206 51.5351 0.628732 51.9676C0.567069 52.1529 0.382083 52.3382 0.320419 52.5236C0.135427 53.2032 -0.0495685 54.1916 0.0120953 54.933C0.0737591 55.7979 0.197089 56.7864 0.567072 57.5895C0.628736 57.7131 0.690403 57.7749 0.690403 57.8366C0.937059 58.1455 1.67568 59.0104 2.23199 59.1958C2.29231 59.2576 2.29232 59.3811 2.35398 59.4429C3.40227 60.246 4.88219 60.7403 6.42245 60.8638C6.48411 60.8638 6.48411 61.0492 6.60744 60.9874C9.50564 60.5549 11.4159 59.2576 13.3275 57.7131C15.4857 56.045 17.2726 54.2534 18.8129 52.0911C19.4295 51.2262 20.0461 50.4231 20.5394 49.4964C21.0328 49.0021 21.3411 48.3843 21.5877 47.7048C23.746 44.8011 24.7916 40.9708 26.3332 37.5111C26.3332 37.4494 26.4565 37.264 26.4565 37.264C26.9498 35.4106 27.9364 33.9279 28.7381 32.3834C30.1563 29.974 31.3266 27.3175 32.8065 25.0934ZM14.0044 55.1801C14.0044 55.3037 11.2309 57.466 11.0459 57.5277C10.2443 58.0838 9.62764 58.2691 9.44398 58.2691C9.25899 58.2691 7.40908 58.022 7.65573 57.8366C7.7174 57.8366 9.19732 57.9602 9.99761 57.5895C11.5392 56.9717 13.2041 55.6126 13.8811 54.9948C14.0044 55.0565 14.0044 55.1183 14.0044 55.1801ZM14.5594 54.8094C14.3744 54.4388 15.2377 53.821 15.4227 53.821C15.2377 54.0681 14.8677 54.377 14.5594 54.8094ZM34.2248 19.2861C34.1631 19.4097 34.8414 19.5333 34.9634 19.6568C35.0868 19.7804 35.0251 19.9657 35.1484 20.0893C35.9501 20.7071 36.9983 19.6568 37.615 19.4097C38.1699 18.9155 38.7249 18.2977 39.2169 17.6799C39.3041 17.5481 39.3668 17.4016 39.4019 17.2474C39.4635 16.6296 38.8482 16.0118 38.8482 15.4558C38.8482 15.2705 39.0332 15.0851 39.0936 14.8998C39.4019 13.9113 39.4636 13.0464 38.9099 12.3668C37.43 11.9344 35.8267 13.726 34.9018 14.4673C34.7181 14.5909 34.4715 14.7145 34.3481 14.7762C34.0398 15.0851 34.0398 15.1469 33.6698 15.394C33.4232 15.6412 32.6832 16.0736 32.7449 16.5061C32.9299 17.5563 33.0532 17.7417 33.4848 18.5448C33.7315 18.9155 33.9781 19.039 34.2248 19.2861Z" fill="currentColor"/>
</svg>
