<svg width="200" height="200" viewBox="0 0 200 200" fill="none" xmlns="http://www.w3.org/2000/svg">
<path d="M158.617 65.1632C159.373 65.4714 160.173 65.6253 160.973 65.6253C161.774 65.6253 162.574 65.4714 163.329 65.1632C164.818 64.5561 199.787 50.0015 199.787 24.3609C199.787 10.9281 188.716 0 175.107 0C169.99 0 165.075 1.55586 160.973 4.38788C156.872 1.55586 151.957 0 146.839 0C133.23 0 122.159 10.9281 122.159 24.3609C122.159 50.0015 157.128 64.5561 158.617 65.1632ZM146.839 12.5C150.476 12.5 153.897 14.0648 156.225 16.7929C157.411 18.1832 159.146 18.9839 160.973 18.9839C162.8 18.9839 164.535 18.1832 165.722 16.7929C168.05 14.0648 171.47 12.5 175.107 12.5C181.83 12.5 187.299 17.8207 187.299 24.3609C187.299 37.4042 170.1 48.2273 161.015 52.5226C154.193 49.2179 134.648 38.5093 134.648 24.3609C134.648 17.8207 140.117 12.5 146.839 12.5Z" fill="currentColor"/>
<path d="M135.955 68.7694C125.719 54.6788 111.726 44.8464 95.3062 40.2581C81.2967 36.3745 66.7688 36.5128 53.2943 40.6577C40.6819 44.5374 29.1966 51.8058 20.0807 61.6768C10.994 71.5163 4.66224 83.5006 1.76994 96.3342C-1.30345 109.972 -0.361333 124.251 4.4952 137.631C13.32 162.495 34.8739 181.076 60.7512 186.123C60.7708 186.127 60.7899 186.131 60.8094 186.134C65.6019 187.022 69.941 187.426 71.9442 187.426C75.3927 187.426 78.1886 184.627 78.1886 181.176C78.1886 177.724 75.3927 174.926 71.9442 174.926C71.0021 174.926 67.4721 174.654 63.1085 173.848C41.5522 169.632 23.6009 154.146 16.256 133.426C16.2506 133.41 16.2451 133.395 16.2396 133.38C8.21878 111.303 13.0831 87.6694 29.2517 70.1616C45.4776 52.5913 68.9243 45.9159 91.9604 52.3011C103.175 55.4347 113.051 61.5346 120.969 70.1444C91.2533 76.3776 68.8689 102.808 68.8689 134.375C68.8689 170.561 98.2813 200 134.434 200C170.588 200 200 170.561 200 134.375C200 98.6979 171.408 69.5807 135.955 68.7694ZM134.435 187.5C124.614 187.5 115.411 184.813 107.513 180.141C135.193 166.831 152.539 137.357 149.778 106.14C149.527 103.074 148.923 98.3072 147.473 92.9651L147.444 92.8604C146.657 89.6237 143.452 87.5549 140.157 88.2139C136.775 88.8893 134.58 92.1803 135.254 95.5655C135.27 95.6428 135.321 95.874 135.421 96.2432C136.625 100.679 137.125 104.638 137.332 107.179C137.333 107.194 137.335 107.209 137.336 107.224C139.83 135.339 122.72 161.764 96.3147 171.3C87.0622 161.733 81.358 148.709 81.358 134.374C81.358 105.081 105.168 81.2491 134.435 81.2491C163.701 81.2491 187.512 105.081 187.512 134.374C187.512 163.667 163.701 187.5 134.435 187.5ZM147.454 92.9037C147.478 93.0053 147.493 93.0783 147.502 93.1213C147.487 93.0479 147.471 92.9756 147.454 92.9037Z" fill="currentColor"/>
</svg>
